<svg width="512" height="375.4" xmlns="http://www.w3.org/2000/svg" clip-rule="evenodd" fill-rule="evenodd" image-rendering="optimizeQuality" text-rendering="geometricPrecision" shape-rendering="geometricPrecision">
 <g>
  <title>Layer 1</title>
  <path id="svg_1" d="m27.13,40.95l34.22,0l0,-39.95l25.85,0l0,39.95l47.65,0l0,-39.95l25.84,0l0,39.95l47.64,0l0,-39.95l25.84,0l0,39.95l47.65,0l0,-39.95l25.84,0l0,39.95l47.65,0l0,-39.95l25.84,0l0,39.95l47.65,0l0,-39.95l25.84,0l0,39.95l34.23,0c6.88,0 13.15,2.82 17.71,7.37l0.05,0.05c4.54,4.55 7.37,10.82 7.37,17.71l0,247.73c0,6.88 -2.83,13.15 -7.37,17.71l-0.05,0.05c-4.56,4.54 -10.83,7.37 -17.71,7.37l-34.23,0l0,37.46l-25.84,0l0,-37.46l-47.65,0l0,37.46l-25.84,0l0,-37.46l-47.65,0l0,37.46l-25.84,0l0,-37.46l-47.65,0l0,37.46l-25.84,0l0,-37.46l-47.64,0l0,37.46l-25.84,0l0,-37.46l-47.65,0l0,37.46l-25.85,0l0,-37.46l-34.22,0c-6.89,0 -13.15,-2.83 -17.71,-7.37l-0.05,-0.05c-4.54,-4.56 -7.37,-10.83 -7.37,-17.71l0,-247.73c0,-6.89 2.83,-13.16 7.37,-17.71l0.05,-0.05c2.28,-2.275 4.985,-4.1175 7.98125,-5.39125c1.49813,-0.63687 3.06906,-1.13156 4.69609,-1.46703l5.03266,-0.51172zm461.03,25.84l-460.32,0l0,246.31l460.32,0l0,-246.31z" fill-rule="nonzero" fill="#fefefe"/>
  <path id="svg_4" d="m-312.43502,283.5852l1.14591,0l0.3541,-0.76394l0.3541,0.76394l1.14591,0l-0.92706,0.47213l0.35411,0.76394l-0.92706,-0.47215l-0.92706,0.47215l0.35411,-0.76394l-0.92706,-0.47213z"/>
 </g>
</svg>