<svg viewBox="0 0 466.04 466.04" fill="#fefefe" xmlns="http://www.w3.org/2000/svg">
    <path d="m333.742188 79.660156h-201.441407c-29.058593.035156-52.609375 23.582032-52.640625 52.640625v201.441407c.03125 29.058593 23.582032 52.605468 52.640625 52.640624h201.4375c29.058594-.035156 52.609375-23.582031 52.640625-52.640624v-201.441407c-.035156-29.058593-23.582031-52.605469-52.636718-52.640625zm32.636718 254.082032c-.019531 18.015624-14.621094 32.617187-32.636718 32.640624h-201.441407c-18.019531-.023437-32.621093-14.625-32.640625-32.640624v-201.441407c.019532-18.019531 14.621094-32.621093 32.640625-32.640625h201.4375c18.019531.019532 32.621094 14.621094 32.640625 32.640625zm0 0"></path><path d="m154.800781 48.699219c5.523438 0 10-4.476563 10-10v-28.699219c0-5.523438-4.476562-10-10-10-5.523437 0-10 4.476562-10 10v28.699219c0 5.523437 4.476563 10 10 10zm0 0"></path><path d="m311.238281 48.699219c5.523438 0 10-4.476563 10-10v-28.699219c0-5.523438-4.476562-10-10-10-5.519531 0-10 4.476562-10 10v28.699219c0 5.523437 4.480469 10 10 10zm0 0"></path><path d="m154.800781 417.339844c-5.523437 0-10 4.476562-10 10v28.699218c0 5.523438 4.476563 10 10 10 5.523438 0 10-4.476562 10-10v-28.699218c0-5.523438-4.476562-10-10-10zm0 0"></path><path d="m311.238281 417.339844c-5.519531 0-10 4.476562-10 10v28.699218c0 5.523438 4.480469 10 10 10 5.523438 0 10-4.476562 10-10v-28.699218c0-5.523438-4.476562-10-10-10zm0 0"></path><path d="m456.039062 144.800781h-28.699218c-5.523438 0-10 4.476563-10 10 0 5.523438 4.476562 10 10 10h28.699218c5.523438 0 10-4.476562 10-10 0-5.523437-4.476562-10-10-10zm0 0"></path><path d="m456.039062 301.238281h-28.699218c-5.523438 0-10 4.480469-10 10 0 5.523438 4.476562 10 10 10h28.699218c5.523438 0 10-4.476562 10-10 0-5.519531-4.476562-10-10-10zm0 0"></path><path d="m38.699219 144.800781h-28.699219c-5.523438 0-10 4.476563-10 10 0 5.523438 4.476562 10 10 10h28.699219c5.523437 0 10-4.476562 10-10 0-5.523437-4.476563-10-10-10zm0 0"></path><path d="m38.699219 301.238281h-28.699219c-5.523438 0-10 4.480469-10 10 0 5.523438 4.476562 10 10 10h28.699219c5.523437 0 10-4.476562 10-10 0-5.519531-4.476563-10-10-10zm0 0"></path><path d="m317.378906 138.660156h-168.71875c-5.523437 0-10 4.476563-10 10v168.71875c0 5.523438 4.476563 10 10 10h168.71875c5.523438 0 10-4.476562 10-10v-168.71875c0-5.523437-4.476562-10-10-10zm-10 168.71875h-148.71875v-148.71875h148.71875zm0 0"></path>
</svg>